{
  "accessors": [
    {
      "bufferView": 2,
      "componentType": 5126,
      "count": 9126,
      "max": [
        0.07005514204502106,
        0.07005514204502106,
        0.007781518157571554
      ],
      "min": [
        -0.07005514204502106,
        -0.07005514204502106,
        -0.006218482740223408
      ],
      "type": "VEC3"
    },
    {
      "bufferView": 2,
      "byteOffset": 109512,
      "componentType": 5126,
      "count": 9126,
      "max": [
        0.9999744296073914,
        0.9999745488166809,
        0.9999991059303284
      ],
      "min": [
        -0.9999745488166809,
        -0.9999744296073914,
        -0.9999991059303284
      ],
      "type": "VEC3"
    },
    {
      "bufferView": 1,
      "componentType": 5126,
      "count": 9126,
      "max": [
        1.0000003576278687,
        1.0
      ],
      "min": [
        -4.5107182700121484e-07,
        0.01704963855445385
      ],
      "type": "VEC2"
    },
    {
      "bufferView": 0,
      "componentType": 5125,
      "count": 33024,
      "type": "SCALAR"
    },
    {
      "bufferView": 2,
      "byteOffset": 219024,
      "componentType": 5126,
      "count": 258,
      "max": [
        0.004750000312924385,
        0.004750000312924385,
        0.0650000050663948
      ],
      "min": [
        -0.004750000312924385,
        -0.004750000312924385,
        -0.0650000050663948
      ],
      "type": "VEC3"
    },
    {
      "bufferView": 2,
      "byteOffset": 222120,
      "componentType": 5126,
      "count": 258,
      "max": [
        1.0,
        1.0,
        1.0
      ],
      "min": [
        -1.0,
        -1.0,
        -1.0
      ],
      "type": "VEC3"
    },
    {
      "bufferView": 1,
      "byteOffset": 73008,
      "componentType": 5126,
      "count": 258,
      "max": [
        1.0,
        1.0
      ],
      "min": [
        0.0,
        0.01000000536441803
      ],
      "type": "VEC2"
    },
    {
      "bufferView": 0,
      "byteOffset": 132096,
      "componentType": 5125,
      "count": 756,
      "type": "SCALAR"
    },
    {
      "bufferView": 2,
      "byteOffset": 225216,
      "componentType": 5126,
      "count": 1300,
      "max": [
        0.08760661631822586,
        0.006250002421438694,
        0.008965328335762024
      ],
      "min": [
        -0.08760660141706467,
        -0.006250002421438694,
        -0.09147566556930542
      ],
      "type": "VEC3"
    },
    {
      "bufferView": 2,
      "byteOffset": 240816,
      "componentType": 5126,
      "count": 1300,
      "max": [
        0.999995231628418,
        1.0,
        1.0
      ],
      "min": [
        -0.999995231628418,
        -1.0,
        -1.0
      ],
      "type": "VEC3"
    },
    {
      "bufferView": 1,
      "byteOffset": 75072,
      "componentType": 5126,
      "count": 1300,
      "max": [
        1.0,
        0.9267529249191284
      ],
      "min": [
        0.0,
        0.0
      ],
      "type": "VEC2"
    },
    {
      "bufferView": 0,
      "byteOffset": 135120,
      "componentType": 5125,
      "count": 3600,
      "type": "SCALAR"
    },
    {
      "bufferView": 2,
      "byteOffset": 256416,
      "componentType": 5126,
      "count": 1128,
      "max": [
        0.08636783063411713,
        0.00736690778285265,
        0.013940814882516861
      ],
      "min": [
        -0.0863506942987442,
        -0.0073669045232236385,
        -0.013940819539129734
      ],
      "type": "VEC3"
    },
    {
      "bufferView": 2,
      "byteOffset": 269952,
      "componentType": 5126,
      "count": 1128,
      "max": [
        1.0,
        1.0,
        0.9899539947509766
      ],
      "min": [
        -1.0,
        -1.0,
        -0.9899541735649109
      ],
      "type": "VEC3"
    },
    {
      "bufferView": 1,
      "byteOffset": 85472,
      "componentType": 5126,
      "count": 1128,
      "max": [
        0.0,
        0.0
      ],
      "min": [
        0.0,
        0.0
      ],
      "type": "VEC2"
    },
    {
      "bufferView": 0,
      "byteOffset": 149520,
      "componentType": 5125,
      "count": 4368,
      "type": "SCALAR"
    },
    {
      "bufferView": 2,
      "byteOffset": 283488,
      "componentType": 5126,
      "count": 6696,
      "max": [
        0.0852363258600235,
        0.006000003777444363,
        0.08499381691217422
      ],
      "min": [
        -0.08520746231079102,
        -0.006000003777444363,
        -0.08544997870922089
      ],
      "type": "VEC3"
    },
    {
      "bufferView": 2,
      "byteOffset": 363840,
      "componentType": 5126,
      "count": 6696,
      "max": [
        0.9999120831489563,
        1.0,
        0.999998152256012
      ],
      "min": [
        -0.9999075531959534,
        -1.0,
        -0.9999494552612305
      ],
      "type": "VEC3"
    },
    {
      "bufferView": 1,
      "byteOffset": 94496,
      "componentType": 5126,
      "count": 6696,
      "max": [
        0.0,
        0.0
      ],
      "min": [
        0.0,
        0.0
      ],
      "type": "VEC2"
    },
    {
      "bufferView": 0,
      "byteOffset": 166992,
      "componentType": 5125,
      "count": 32832,
      "type": "SCALAR"
    },
    {
      "bufferView": 2,
      "byteOffset": 444192,
      "componentType": 5126,
      "count": 768,
      "max": [
        0.08249999582767487,
        0.004787987098097801,
        0.08140246570110321
      ],
      "min": [
        -0.08249999582767487,
        0.003787979716435075,
        -0.08359752595424652
      ],
      "type": "VEC3"
    },
    {
      "bufferView": 2,
      "byteOffset": 453408,
      "componentType": 5126,
      "count": 768,
      "max": [
        0.9996989369392395,
        1.0,
        0.99969881772995
      ],
      "min": [
        -0.9996989369392395,
        -1.0,
        -0.9996989369392395
      ],
      "type": "VEC3"
    },
    {
      "bufferView": 1,
      "byteOffset": 148064,
      "componentType": 5126,
      "count": 768,
      "max": [
        0.0,
        0.0
      ],
      "min": [
        0.0,
        0.0
      ],
      "type": "VEC2"
    },
    {
      "bufferView": 0,
      "byteOffset": 298320,
      "componentType": 5125,
      "count": 1524,
      "type": "SCALAR"
    },
    {
      "bufferView": 2,
      "byteOffset": 462624,
      "componentType": 5126,
      "count": 4505,
      "max": [
        0.09007202088832855,
        0.0041292086243629456,
        0.004130398854613304
      ],
      "min": [
        -0.09007202088832855,
        -0.004129194654524326,
        -0.2259078025817871
      ],
      "type": "VEC3"
    },
    {
      "bufferView": 2,
      "byteOffset": 516684,
      "componentType": 5126,
      "count": 4505,
      "max": [
        1.0,
        0.9999843835830688,
        1.0
      ],
      "min": [
        -1.0,
        -0.9999844431877136,
        -1.0
      ],
      "type": "VEC3"
    },
    {
      "bufferView": 1,
      "byteOffset": 154208,
      "componentType": 5126,
      "count": 4505,
      "max": [
        1.0,
        1.0
      ],
      "min": [
        -0.0009054991533048451,
        0.016979508101940155
      ],
      "type": "VEC2"
    },
    {
      "bufferView": 0,
      "byteOffset": 304416,
      "componentType": 5125,
      "count": 6687,
      "type": "SCALAR"
    },
    {
      "bufferView": 2,
      "byteOffset": 570744,
      "componentType": 5126,
      "count": 258,
      "max": [
        0.015000000596046448,
        0.015000000596046448,
        0.0005000000237487257
      ],
      "min": [
        -0.015000000596046448,
        -0.015000000596046448,
        -0.0005000000237487257
      ],
      "type": "VEC3"
    },
    {
      "bufferView": 2,
      "byteOffset": 573840,
      "componentType": 5126,
      "count": 258,
      "max": [
        1.0,
        1.0,
        1.0
      ],
      "min": [
        -1.0,
        -1.0,
        -1.0
      ],
      "type": "VEC3"
    },
    {
      "bufferView": 1,
      "byteOffset": 190248,
      "componentType": 5126,
      "count": 258,
      "max": [
        1.0,
        1.0
      ],
      "min": [
        0.0,
        0.01000000536441803
      ],
      "type": "VEC2"
    },
    {
      "bufferView": 0,
      "byteOffset": 331164,
      "componentType": 5125,
      "count": 756,
      "type": "SCALAR"
    },
    {
      "bufferView": 2,
      "byteOffset": 576936,
      "componentType": 5126,
      "count": 768,
      "max": [
        0.08249999582767487,
        0.004787987098097801,
        0.08140246570110321
      ],
      "min": [
        -0.08249999582767487,
        0.003787979716435075,
        -0.08359752595424652
      ],
      "type": "VEC3"
    },
    {
      "bufferView": 2,
      "byteOffset": 586152,
      "componentType": 5126,
      "count": 768,
      "max": [
        0.9996989369392395,
        1.0,
        0.99969881772995
      ],
      "min": [
        -0.9996989369392395,
        -1.0,
        -0.9996989369392395
      ],
      "type": "VEC3"
    },
    {
      "bufferView": 1,
      "byteOffset": 192312,
      "componentType": 5126,
      "count": 768,
      "max": [
        0.0,
        0.0
      ],
      "min": [
        0.0,
        0.0
      ],
      "type": "VEC2"
    },
    {
      "bufferView": 0,
      "byteOffset": 334188,
      "componentType": 5125,
      "count": 1524,
      "type": "SCALAR"
    },
    {
      "bufferView": 2,
      "byteOffset": 595368,
      "componentType": 5126,
      "count": 4284,
      "max": [
        0.028075486421585083,
        0.009960334748029709,
        -0.004427391104400158
      ],
      "min": [
        -0.02807559259235859,
        -0.010128308087587357,
        -0.004933037795126438
      ],
      "type": "VEC3"
    },
    {
      "bufferView": 2,
      "byteOffset": 646776,
      "componentType": 5126,
      "count": 4284,
      "max": [
        0.015254750847816467,
        0.027111798524856567,
        0.9999651312828064
      ],
      "min": [
        -0.015293180011212826,
        0.008272265084087849,
        0.9995880126953125
      ],
      "type": "VEC3"
    },
    {
      "bufferView": 1,
      "byteOffset": 198456,
      "componentType": 5126,
      "count": 4284,
      "max": [
        1.0,
        1.0
      ],
      "min": [
        -3.637980541815189e-12,
        0.0
      ],
      "type": "VEC2"
    },
    {
      "bufferView": 0,
      "byteOffset": 340284,
      "componentType": 5125,
      "count": 6426,
      "type": "SCALAR"
    }
  ],
  "asset": {
    "extras": {
      "author": "YouniqueĪdeaStudio (https://sketchfab.com/sinnervoncrawsz)",
      "license": "CC-BY-4.0 (http://creativecommons.org/licenses/by/4.0/)",
      "source": "https://sketchfab.com/3d-models/mirror-ikea-trensum-258799ba04874be4a972b13eaf180fa0",
      "title": "MIRROR - IKEA TRENSUM"
    },
    "generator": "Sketchfab-13.58.0",
    "version": "2.0"
  },
  "bufferViews": [
    {
      "buffer": 0,
      "byteLength": 365988,
      "name": "floatBufferViews",
      "target": 34963
    },
    {
      "buffer": 0,
      "byteLength": 232728,
      "byteOffset": 365988,
      "byteStride": 8,
      "name": "floatBufferViews",
      "target": 34962
    },
    {
      "buffer": 0,
      "byteLength": 698184,
      "byteOffset": 598716,
      "byteStride": 12,
      "name": "floatBufferViews",
      "target": 34962
    }
  ],
  "buffers": [
    {
      "byteLength": 1296900,
      "uri": "scene.bin"
    }
  ],
  "extensionsUsed": [
    "KHR_materials_clearcoat"
  ],
  "images": [
    {
      "uri": "textures/IMG-1872_baseColor.jpeg"
    }
  ],
  "materials": [
    {
      "doubleSided": true,
      "extensions": {
        "KHR_materials_clearcoat": {
          "clearcoatFactor": 1.0,
          "clearcoatRoughnessFactor": 0.04
        }
      },
      "name": "Material.002",
      "pbrMetallicRoughness": {
        "baseColorFactor": [
          0.8,
          0.8,
          0.8,
          1.0
        ],
        "roughnessFactor": 0.07
      }
    },
    {
      "doubleSided": true,
      "extensions": {
        "KHR_materials_clearcoat": {
          "clearcoatFactor": 1.0,
          "clearcoatRoughnessFactor": 0.04
        }
      },
      "name": "Material.005",
      "pbrMetallicRoughness": {
        "baseColorFactor": [
          0.8,
          0.8,
          0.8,
          1.0
        ],
        "roughnessFactor": 0.07
      }
    },
    {
      "doubleSided": true,
      "extensions": {
        "KHR_materials_clearcoat": {
          "clearcoatFactor": 1.0,
          "clearcoatRoughnessFactor": 0.04
        }
      },
      "name": "Material.003",
      "pbrMetallicRoughness": {
        "baseColorFactor": [
          0.8,
          0.8,
          0.8,
          1.0
        ],
        "roughnessFactor": 0.07
      }
    },
    {
      "doubleSided": true,
      "name": "Material.004",
      "pbrMetallicRoughness": {
        "baseColorFactor": [
          0.8,
          0.8,
          0.8,
          1.0
        ],
        "roughnessFactor": 0.08
      }
    },
    {
      "doubleSided": true,
      "extensions": {
        "KHR_materials_clearcoat": {
          "clearcoatFactor": 1.0,
          "clearcoatRoughnessFactor": 0.04
        }
      },
      "name": "Material.006",
      "pbrMetallicRoughness": {
        "baseColorFactor": [
          0.8,
          0.8,
          0.8,
          1.0
        ],
        "roughnessFactor": 0.07
      }
    },
    {
      "doubleSided": true,
      "name": "Material.009",
      "pbrMetallicRoughness": {
        "baseColorFactor": [
          0.8,
          0.8,
          0.8,
          1.0
        ],
        "roughnessFactor": 0.0
      }
    },
    {
      "doubleSided": true,
      "name": "Material.008",
      "pbrMetallicRoughness": {
        "baseColorFactor": [
          0.8,
          0.8,
          0.8,
          1.0
        ],
        "roughnessFactor": 0.1
      }
    },
    {
      "doubleSided": true,
      "extensions": {
        "KHR_materials_clearcoat": {
          "clearcoatFactor": 1.0,
          "clearcoatRoughnessFactor": 0.04
        }
      },
      "name": "Material.010",
      "pbrMetallicRoughness": {
        "baseColorFactor": [
          0.8,
          0.8,
          0.8,
          1.0
        ],
        "roughnessFactor": 0.07
      }
    },
    {
      "doubleSided": true,
      "name": "IMG-1872",
      "pbrMetallicRoughness": {
        "baseColorTexture": {
          "index": 0
        },
        "metallicFactor": 0.0,
        "roughnessFactor": 0.03980200862677326
      }
    }
  ],
  "meshes": [
    {
      "name": "BASE_Material.002_0",
      "primitives": [
        {
          "attributes": {
            "NORMAL": 1,
            "POSITION": 0,
            "TEXCOORD_0": 2
          },
          "indices": 3,
          "material": 0,
          "mode": 4
        }
      ]
    },
    {
      "name": "FOOT_Material.005_0",
      "primitives": [
        {
          "attributes": {
            "NORMAL": 5,
            "POSITION": 4,
            "TEXCOORD_0": 6
          },
          "indices": 7,
          "material": 1,
          "mode": 4
        }
      ]
    },
    {
      "name": "C_Material.003_0",
      "primitives": [
        {
          "attributes": {
            "NORMAL": 9,
            "POSITION": 8,
            "TEXCOORD_0": 10
          },
          "indices": 11,
          "material": 2,
          "mode": 4
        }
      ]
    },
    {
      "name": "CLAMP_Material.004_0",
      "primitives": [
        {
          "attributes": {
            "NORMAL": 13,
            "POSITION": 12,
            "TEXCOORD_0": 14
          },
          "indices": 15,
          "material": 3,
          "mode": 4
        }
      ]
    },
    {
      "name": "FRAME_Material.006_0",
      "primitives": [
        {
          "attributes": {
            "NORMAL": 17,
            "POSITION": 16,
            "TEXCOORD_0": 18
          },
          "indices": 19,
          "material": 4,
          "mode": 4
        }
      ]
    },
    {
      "name": "MIRROR 2_Material.009_0",
      "primitives": [
        {
          "attributes": {
            "NORMAL": 21,
            "POSITION": 20,
            "TEXCOORD_0": 22
          },
          "indices": 23,
          "material": 5,
          "mode": 4
        }
      ]
    },
    {
      "name": "BOLT_Material.008_0",
      "primitives": [
        {
          "attributes": {
            "NORMAL": 25,
            "POSITION": 24,
            "TEXCOORD_0": 26
          },
          "indices": 27,
          "material": 6,
          "mode": 4
        }
      ]
    },
    {
      "name": "ring_Material.010_0",
      "primitives": [
        {
          "attributes": {
            "NORMAL": 29,
            "POSITION": 28,
            "TEXCOORD_0": 30
          },
          "indices": 31,
          "material": 7,
          "mode": 4
        }
      ]
    },
    {
      "name": "MIRROR 2.001_Material.009_0",
      "primitives": [
        {
          "attributes": {
            "NORMAL": 33,
            "POSITION": 32,
            "TEXCOORD_0": 34
          },
          "indices": 35,
          "material": 5,
          "mode": 4
        }
      ]
    },
    {
      "name": "IMG-1872_IMG-1872_0",
      "primitives": [
        {
          "attributes": {
            "NORMAL": 37,
            "POSITION": 36,
            "TEXCOORD_0": 38
          },
          "indices": 39,
          "material": 8,
          "mode": 4
        }
      ]
    }
  ],
  "nodes": [
    {
      "children": [
        1
      ],
      "matrix": [
        0.807540774345398,
        0.0,
        0.0,
        0.0,
        0.0,
        1.7931007220037775e-16,
        -0.807540774345398,
        0.0,
        0.0,
        0.807540774345398,
        1.7931007220037775e-16,
        0.0,
        0.0,
        0.0,
        0.0,
        1.0
      ],
      "name": "Sketchfab_model"
    },
    {
      "children": [
        2
      ],
      "matrix": [
        0.009999999776482582,
        0.0,
        0.0,
        0.0,
        0.0,
        0.0,
        0.009999999776482582,
        0.0,
        0.0,
        -0.009999999776482582,
        0.0,
        0.0,
        0.0,
        0.0,
        0.0,
        1.0
      ],
      "name": "IKEA TRENSUM3.fbx"
    },
    {
      "children": [
        3,
        5,
        7,
        9,
        11,
        13,
        15,
        17,
        19,
        21
      ],
      "name": "RootNode"
    },
    {
      "children": [
        4
      ],
      "matrix": [
        100.0,
        0.0,
        0.0,
        0.0,
        0.0,
        -1.629206793918314e-05,
        -99.99999999999868,
        0.0,
        0.0,
        99.99999999999868,
        -1.629206793918314e-05,
        0.0,
        0.0,
        0.0,
        0.0,
        1.0
      ],
      "name": "BASE"
    },
    {
      "mesh": 0,
      "name": "BASE_Material.002_0"
    },
    {
      "children": [
        6
      ],
      "matrix": [
        100.0,
        0.0,
        0.0,
        0.0,
        0.0,
        -1.629206793918314e-05,
        -99.99999999999868,
        0.0,
        0.0,
        99.99999999999868,
        -1.629206793918314e-05,
        0.0,
        0.0,
        7.2781524658203125,
        0.0,
        1.0
      ],
      "name": "FOOT"
    },
    {
      "mesh": 1,
      "name": "FOOT_Material.005_0"
    },
    {
      "children": [
        8
      ],
      "matrix": [
        100.0,
        0.0,
        0.0,
        0.0,
        0.0,
        -1.629206793918314e-05,
        -99.99999999999868,
        0.0,
        0.0,
        99.99999999999868,
        -1.629206793918314e-05,
        0.0,
        0.0,
        22.92572021484375,
        -2.3283064365386963e-08,
        1.0
      ],
      "name": "C"
    },
    {
      "mesh": 2,
      "name": "C_Material.003_0"
    },
    {
      "children": [
        10
      ],
      "matrix": [
        100.0,
        0.0,
        0.0,
        0.0,
        0.0,
        -25.881915193513905,
        -96.59257976633482,
        0.0,
        0.0,
        96.59257976633482,
        -25.881915193513905,
        0.0,
        6.661338147750939e-14,
        22.917882919311523,
        0.002081333426758647,
        1.0
      ],
      "name": "CLAMP"
    },
    {
      "mesh": 3,
      "name": "CLAMP_Material.004_0"
    },
    {
      "children": [
        12
      ],
      "matrix": [
        100.0,
        0.0,
        0.0,
        0.0,
        0.0,
        -25.881915193513905,
        -96.59257976633482,
        0.0,
        0.0,
        96.59257976633482,
        -25.881915193513905,
        0.0,
        0.0,
        22.917882919311523,
        0.002081333426758647,
        1.0
      ],
      "name": "FRAME"
    },
    {
      "mesh": 4,
      "name": "FRAME_Material.006_0"
    },
    {
      "children": [
        14
      ],
      "matrix": [
        100.0,
        0.0,
        0.0,
        0.0,
        0.0,
        -25.881915193513905,
        -96.59257976633482,
        0.0,
        0.0,
        96.59257976633482,
        -25.881915193513905,
        0.0,
        0.0,
        22.921844482421875,
        -0.013938913121819496,
        1.0
      ],
      "name": "MIRROR 2"
    },
    {
      "mesh": 5,
      "name": "MIRROR 2_Material.009_0"
    },
    {
      "children": [
        16
      ],
      "matrix": [
        100.0,
        0.0,
        0.0,
        0.0,
        0.0,
        -1.629206793918314e-05,
        -99.99999999999868,
        0.0,
        0.0,
        99.99999999999868,
        -1.629206793918314e-05,
        0.0,
        0.0,
        22.92572021484375,
        -2.3283064365386963e-08,
        1.0
      ],
      "name": "BOLT"
    },
    {
      "mesh": 6,
      "name": "BOLT_Material.008_0"
    },
    {
      "children": [
        18
      ],
      "matrix": [
        100.0,
        0.0,
        0.0,
        0.0,
        0.0,
        -1.629206793918314e-05,
        -99.99999999999868,
        0.0,
        0.0,
        99.99999999999868,
        -1.629206793918314e-05,
        0.0,
        0.0,
        0.6293455958366394,
        -2.3283064365386963e-08,
        1.0
      ],
      "name": "ring"
    },
    {
      "mesh": 7,
      "name": "ring_Material.010_0"
    },
    {
      "children": [
        20
      ],
      "matrix": [
        100.0,
        0.0,
        0.0,
        0.0,
        0.0,
        25.881860690186677,
        96.59259437044732,
        0.0,
        0.0,
        -96.59259437044732,
        25.881860690186677,
        0.0,
        0.0,
        22.929325103759766,
        0.013977420516312122,
        1.0
      ],
      "name": "MIRROR 2.001"
    },
    {
      "mesh": 8,
      "name": "MIRROR 2.001_Material.009_0"
    },
    {
      "children": [
        22
      ],
      "matrix": [
        100.0,
        0.0,
        0.0,
        0.0,
        0.0,
        -2.8212996916465727e-05,
        99.99999999999602,
        0.0,
        0.0,
        -99.99999999999602,
        -2.8212996916465727e-05,
        0.0,
        0.0,
        0.16433443129062653,
        -3.8495943546295166,
        1.0
      ],
      "name": "IMG-1872"
    },
    {
      "mesh": 9,
      "name": "IMG-1872_IMG-1872_0"
    }
  ],
  "samplers": [
    {
      "magFilter": 9729,
      "minFilter": 9987,
      "wrapS": 33071,
      "wrapT": 33071
    }
  ],
  "scene": 0,
  "scenes": [
    {
      "name": "Sketchfab_Scene",
      "nodes": [
        0
      ]
    }
  ],
  "textures": [
    {
      "sampler": 0,
      "source": 0
    }
  ]
}
