{
  "accessors": [
    {
      "bufferView": 2,
      "componentType": 5126,
      "count": 5838,
      "max": [
        49.994998931884766,
        -2.234999895095825,
        49.99700164794922
      ],
      "min": [
        -49.994998931884766,
        -97.7239990234375,
        -49.99700164794922
      ],
      "type": "VEC3"
    },
    {
      "bufferView": 2,
      "byteOffset": 70056,
      "componentType": 5126,
      "count": 5838,
      "max": [
        0.9999350905418396,
        0.991382360458374,
        1.0
      ],
      "min": [
        -0.9999350905418396,
        -0.991382360458374,
        -1.0
      ],
      "type": "VEC3"
    },
    {
      "bufferView": 1,
      "componentType": 5126,
      "count": 5838,
      "max": [
        0.9330000281333923,
        1.999400019645691
      ],
      "min": [
        0.06700000166893005,
        1.000599980354309
      ],
      "type": "VEC2"
    },
    {
      "bufferView": 0,
      "componentType": 5125,
      "count": 24717,
      "type": "SCALAR"
    },
    {
      "bufferView": 2,
      "byteOffset": 140112,
      "componentType": 5126,
      "count": 3211,
      "max": [
        49.35200119018555,
        -0.0,
        48.869998931884766
      ],
      "min": [
        -49.35200119018555,
        -100.0,
        -48.869998931884766
      ],
      "type": "VEC3"
    },
    {
      "bufferView": 2,
      "byteOffset": 178644,
      "componentType": 5126,
      "count": 3211,
      "max": [
        0.9944525957107544,
        1.0,
        0.9999997615814209
      ],
      "min": [
        -0.9944525957107544,
        -1.0,
        -0.9999997615814209
      ],
      "type": "VEC3"
    },
    {
      "bufferView": 1,
      "byteOffset": 46704,
      "componentType": 5126,
      "count": 3211,
      "max": [
        0.9750000238418579,
        1.9990999698638916
      ],
      "min": [
        0.02500000037252903,
        1.0954999923706055
      ],
      "type": "VEC2"
    },
    {
      "bufferView": 0,
      "byteOffset": 98868,
      "componentType": 5125,
      "count": 14877,
      "type": "SCALAR"
    }
  ],
  "asset": {
    "extras": {
      "author": "AdrienakaMerte (https://sketchfab.com/AdrienakaMerte)",
      "license": "CC-BY-4.0 (http://creativecommons.org/licenses/by/4.0/)",
      "source": "https://sketchfab.com/3d-models/foot-ball-42f2dacd02f3427190be53974344844c",
      "title": "foot ball"
    },
    "generator": "Sketchfab-12.65.0",
    "version": "2.0"
  },
  "bufferViews": [
    {
      "buffer": 0,
      "byteLength": 158376,
      "name": "floatBufferViews",
      "target": 34963
    },
    {
      "buffer": 0,
      "byteLength": 72392,
      "byteOffset": 158376,
      "byteStride": 8,
      "name": "floatBufferViews",
      "target": 34962
    },
    {
      "buffer": 0,
      "byteLength": 217176,
      "byteOffset": 230768,
      "byteStride": 12,
      "name": "floatBufferViews",
      "target": 34962
    }
  ],
  "buffers": [
    {
      "byteLength": 447944,
      "uri": "scene.bin"
    }
  ],
  "materials": [
    {
      "doubleSided": true,
      "name": "Material_1_996dd50c-4088-466e-979b-5479d8f9aaf7",
      "pbrMetallicRoughness": {
        "baseColorFactor": [
          0.64,
          0.64,
          0.64,
          1.0
        ],
        "metallicFactor": 0.0
      }
    },
    {
      "doubleSided": true,
      "name": "Material_2_d1925ffb-9ec1-441d-b4d9-d66a7ce7d623",
      "pbrMetallicRoughness": {
        "baseColorFactor": [
          0.162,
          0.162,
          0.162,
          1.0
        ],
        "metallicFactor": 0.0
      }
    }
  ],
  "meshes": [
    {
      "name": "Object_0",
      "primitives": [
        {
          "attributes": {
            "NORMAL": 1,
            "POSITION": 0,
            "TEXCOORD_0": 2
          },
          "indices": 3,
          "material": 0,
          "mode": 4
        }
      ]
    },
    {
      "name": "Object_1",
      "primitives": [
        {
          "attributes": {
            "NORMAL": 5,
            "POSITION": 4,
            "TEXCOORD_0": 6
          },
          "indices": 7,
          "material": 1,
          "mode": 4
        }
      ]
    }
  ],
  "nodes": [
    {
      "children": [
        1
      ],
      "matrix": [
        1.0,
        0.0,
        0.0,
        0.0,
        0.0,
        2.220446049250313e-16,
        -1.0,
        0.0,
        0.0,
        1.0,
        2.220446049250313e-16,
        0.0,
        0.0,
        0.0,
        0.0,
        1.0
      ],
      "name": "Sketchfab_model"
    },
    {
      "children": [
        2,
        3
      ],
      "name": "foot ball.obj.cleaner.materialmerger.gles"
    },
    {
      "mesh": 0,
      "name": "Object_2"
    },
    {
      "mesh": 1,
      "name": "Object_3"
    }
  ],
  "scene": 0,
  "scenes": [
    {
      "name": "Sketchfab_Scene",
      "nodes": [
        0
      ]
    }
  ]
}
