{
  "accessors": [
    {
      "bufferView": 2,
      "componentType": 5126,
      "count": 189,
      "max": [
        0.7606446743011475,
        43.10082244873047,
        0.08685791492462158
      ],
      "min": [
        -1.911535382270813,
        41.739295959472656,
        -4.640101432800293
      ],
      "type": "VEC3"
    },
    {
      "bufferView": 2,
      "byteOffset": 2268,
      "componentType": 5126,
      "count": 189,
      "max": [
        0.9972752332687378,
        0.9987476468086243,
        0.9748352766036987
      ],
      "min": [
        -0.9026703834533691,
        -0.9999424815177917,
        -0.9328421950340271
      ],
      "type": "VEC3"
    },
    {
      "bufferView": 1,
      "componentType": 5126,
      "count": 189,
      "max": [
        0.6527866125106812,
        0.9819459319114685
      ],
      "min": [
        0.604920506477356,
        0.9279447197914124
      ],
      "type": "VEC2"
    },
    {
      "bufferView": 0,
      "componentType": 5125,
      "count": 1056,
      "type": "SCALAR"
    },
    {
      "bufferView": 2,
      "byteOffset": 4536,
      "componentType": 5126,
      "count": 189,
      "max": [
        1.6508574485778809,
        43.57855987548828,
        -0.13145440816879272
      ],
      "min": [
        -0.5359526872634888,
        41.68307876586914,
        -5.091987609863281
      ],
      "type": "VEC3"
    },
    {
      "bufferView": 2,
      "byteOffset": 6804,
      "componentType": 5126,
      "count": 189,
      "max": [
        0.9812131524085999,
        0.9990381002426147,
        0.997845470905304
      ],
      "min": [
        -0.9307484030723572,
        -0.9968819618225098,
        -0.9340648651123047
      ],
      "type": "VEC3"
    },
    {
      "bufferView": 1,
      "byteOffset": 1512,
      "componentType": 5126,
      "count": 189,
      "max": [
        0.7118431329727173,
        0.9878621101379395
      ],
      "min": [
        0.6594886779785156,
        0.9409651160240173
      ],
      "type": "VEC2"
    },
    {
      "bufferView": 0,
      "byteOffset": 4224,
      "componentType": 5125,
      "count": 1056,
      "type": "SCALAR"
    },
    {
      "bufferView": 2,
      "byteOffset": 9072,
      "componentType": 5126,
      "count": 8198,
      "max": [
        22.359933853149414,
        45.207672119140625,
        5.796956539154053
      ],
      "min": [
        -21.71872329711914,
        0.10458521544933319,
        -20.387775421142578
      ],
      "type": "VEC3"
    },
    {
      "bufferView": 2,
      "byteOffset": 107448,
      "componentType": 5126,
      "count": 8198,
      "max": [
        0.9999601244926453,
        0.9999573230743408,
        0.999997079372406
      ],
      "min": [
        -0.99996018409729,
        -0.9997853636741638,
        -0.9999970197677612
      ],
      "type": "VEC3"
    },
    {
      "bufferView": 1,
      "byteOffset": 3024,
      "componentType": 5126,
      "count": 8198,
      "max": [
        0.9992619752883911,
        1.0
      ],
      "min": [
        0.0,
        0.0
      ],
      "type": "VEC2"
    },
    {
      "bufferView": 0,
      "byteOffset": 8448,
      "componentType": 5125,
      "count": 43956,
      "type": "SCALAR"
    },
    {
      "bufferView": 2,
      "byteOffset": 205824,
      "componentType": 5126,
      "count": 422,
      "max": [
        -0.144120454788208,
        40.094329833984375,
        3.3648581504821777
      ],
      "min": [
        -2.7703723907470703,
        35.29160690307617,
        1.7397934198379517
      ],
      "type": "VEC3"
    },
    {
      "bufferView": 2,
      "byteOffset": 210888,
      "componentType": 5126,
      "count": 422,
      "max": [
        0.9932380318641663,
        0.9859819412231445,
        0.9999436140060425
      ],
      "min": [
        -0.9932382702827454,
        -0.9859818816184998,
        -0.9999436140060425
      ],
      "type": "VEC3"
    },
    {
      "bufferView": 1,
      "byteOffset": 68608,
      "componentType": 5126,
      "count": 422,
      "max": [
        0.47755059599876404,
        0.9557035565376282
      ],
      "min": [
        0.41175881028175354,
        0.8870080709457397
      ],
      "type": "VEC2"
    },
    {
      "bufferView": 0,
      "byteOffset": 184272,
      "componentType": 5125,
      "count": 2280,
      "type": "SCALAR"
    },
    {
      "bufferView": 2,
      "byteOffset": 215952,
      "componentType": 5126,
      "count": 422,
      "max": [
        -0.9414416551589966,
        38.57985305786133,
        3.481403112411499
      ],
      "min": [
        -1.9730528593063354,
        36.69330596923828,
        2.843064785003662
      ],
      "type": "VEC3"
    },
    {
      "bufferView": 2,
      "byteOffset": 221016,
      "componentType": 5126,
      "count": 422,
      "max": [
        0.9932394623756409,
        0.9859850406646729,
        0.9999436736106873
      ],
      "min": [
        -0.9932378530502319,
        -0.9859799742698669,
        -0.9999434947967529
      ],
      "type": "VEC3"
    },
    {
      "bufferView": 1,
      "byteOffset": 71984,
      "componentType": 5126,
      "count": 422,
      "max": [
        0.4951479732990265,
        0.9977927207946777
      ],
      "min": [
        0.4596004784107208,
        0.9405192732810974
      ],
      "type": "VEC2"
    },
    {
      "bufferView": 0,
      "byteOffset": 193392,
      "componentType": 5125,
      "count": 2280,
      "type": "SCALAR"
    },
    {
      "bufferView": 2,
      "byteOffset": 226080,
      "componentType": 5126,
      "count": 422,
      "max": [
        3.3937885761260986,
        40.05469512939453,
        3.3787388801574707
      ],
      "min": [
        0.7461870908737183,
        35.2822151184082,
        1.7259125709533691
      ],
      "type": "VEC3"
    },
    {
      "bufferView": 2,
      "byteOffset": 231144,
      "componentType": 5126,
      "count": 422,
      "max": [
        0.9976727962493896,
        0.9797736406326294,
        0.9997038841247559
      ],
      "min": [
        -0.9976727962493896,
        -0.9797741174697876,
        -0.9997038245201111
      ],
      "type": "VEC3"
    },
    {
      "bufferView": 1,
      "byteOffset": 75360,
      "componentType": 5126,
      "count": 422,
      "max": [
        0.552763044834137,
        0.9772605299949646
      ],
      "min": [
        0.5075860023498535,
        0.9307985901832581
      ],
      "type": "VEC2"
    },
    {
      "bufferView": 0,
      "byteOffset": 202512,
      "componentType": 5125,
      "count": 2280,
      "type": "SCALAR"
    },
    {
      "bufferView": 2,
      "byteOffset": 236208,
      "componentType": 5126,
      "count": 422,
      "max": [
        2.589987277984619,
        38.54940414428711,
        3.4868557453155518
      ],
      "min": [
        1.5499885082244873,
        36.67473220825195,
        2.8376119136810303
      ],
      "type": "VEC3"
    },
    {
      "bufferView": 2,
      "byteOffset": 241272,
      "componentType": 5126,
      "count": 422,
      "max": [
        0.9976729154586792,
        0.979773223400116,
        0.9997038841247559
      ],
      "min": [
        -0.9976728558540344,
        -0.9797742962837219,
        -0.9997038245201111
      ],
      "type": "VEC3"
    },
    {
      "bufferView": 1,
      "byteOffset": 78736,
      "componentType": 5126,
      "count": 422,
      "max": [
        0.6022442579269409,
        0.9731314182281494
      ],
      "min": [
        0.5575253963470459,
        0.9009677171707153
      ],
      "type": "VEC2"
    },
    {
      "bufferView": 0,
      "byteOffset": 211632,
      "componentType": 5125,
      "count": 2280,
      "type": "SCALAR"
    },
    {
      "bufferView": 2,
      "byteOffset": 246336,
      "componentType": 5126,
      "count": 175,
      "max": [
        3.6221399307250977,
        41.32712173461914,
        3.3737802505493164
      ],
      "min": [
        0.6427271366119385,
        39.79519271850586,
        2.4208641052246094
      ],
      "type": "VEC3"
    },
    {
      "bufferView": 2,
      "byteOffset": 248436,
      "componentType": 5126,
      "count": 175,
      "max": [
        0.9756976366043091,
        0.9988888502120972,
        0.9853535890579224
      ],
      "min": [
        -0.9534496665000916,
        -0.9946170449256897,
        -0.9967644810676575
      ],
      "type": "VEC3"
    },
    {
      "bufferView": 1,
      "byteOffset": 82112,
      "componentType": 5126,
      "count": 175,
      "max": [
        0.7526625394821167,
        0.9505634903907776
      ],
      "min": [
        0.7048808932304382,
        0.9040977358818054
      ],
      "type": "VEC2"
    },
    {
      "bufferView": 0,
      "byteOffset": 220752,
      "componentType": 5125,
      "count": 936,
      "type": "SCALAR"
    },
    {
      "bufferView": 2,
      "byteOffset": 250536,
      "componentType": 5126,
      "count": 175,
      "max": [
        -0.33055126667022705,
        41.32712173461914,
        3.3958539962768555
      ],
      "min": [
        -3.2695302963256836,
        39.79519271850586,
        2.3430938720703125
      ],
      "type": "VEC3"
    },
    {
      "bufferView": 2,
      "byteOffset": 252636,
      "componentType": 5126,
      "count": 175,
      "max": [
        0.9402909874916077,
        0.9988890886306763,
        0.9778844714164734
      ],
      "min": [
        -0.9690893888473511,
        -0.9946172833442688,
        -0.9940277934074402
      ],
      "type": "VEC3"
    },
    {
      "bufferView": 1,
      "byteOffset": 83512,
      "componentType": 5126,
      "count": 175,
      "max": [
        0.7656424045562744,
        0.9935385584831238
      ],
      "min": [
        0.7163392305374146,
        0.9556528925895691
      ],
      "type": "VEC2"
    },
    {
      "bufferView": 0,
      "byteOffset": 224496,
      "componentType": 5125,
      "count": 936,
      "type": "SCALAR"
    }
  ],
  "asset": {
    "extras": {
      "author": "FAZ - F Animation Zone (https://sketchfab.com/Gafill.Jirayut)",
      "license": "CC-BY-4.0 (http://creativecommons.org/licenses/by/4.0/)",
      "source": "https://sketchfab.com/3d-models/tom-a0dcf723ecb74f61972562efe0eca848",
      "title": "Tom"
    },
    "generator": "Sketchfab-12.63.0",
    "version": "2.0"
  },
  "bufferViews": [
    {
      "buffer": 0,
      "byteLength": 228240,
      "name": "floatBufferViews",
      "target": 34963
    },
    {
      "buffer": 0,
      "byteLength": 84912,
      "byteOffset": 228240,
      "byteStride": 8,
      "name": "floatBufferViews",
      "target": 34962
    },
    {
      "buffer": 0,
      "byteLength": 254736,
      "byteOffset": 313152,
      "byteStride": 12,
      "name": "floatBufferViews",
      "target": 34962
    }
  ],
  "buffers": [
    {
      "byteLength": 567888,
      "uri": "scene.bin"
    }
  ],
  "images": [
    {
      "uri": "textures/lambert2_baseColor.jpeg"
    },
    {
      "uri": "textures/lambert3_baseColor.jpeg"
    }
  ],
  "materials": [
    {
      "doubleSided": true,
      "name": "lambert6",
      "pbrMetallicRoughness": {
        "baseColorFactor": [
          0.1636899999999999,
          0.208975,
          0.2323409999999999,
          1.0
        ],
        "metallicFactor": 0.0,
        "roughnessFactor": 0.6
      }
    },
    {
      "doubleSided": true,
      "name": "lambert2",
      "pbrMetallicRoughness": {
        "baseColorTexture": {
          "index": 0
        },
        "metallicFactor": 0.0,
        "roughnessFactor": 0.6
      }
    },
    {
      "doubleSided": true,
      "name": "lambert4",
      "pbrMetallicRoughness": {
        "metallicFactor": 0.0,
        "roughnessFactor": 0.6
      }
    },
    {
      "doubleSided": true,
      "name": "lambert3",
      "pbrMetallicRoughness": {
        "baseColorTexture": {
          "index": 1
        },
        "metallicFactor": 0.0,
        "roughnessFactor": 0.6
      }
    },
    {
      "doubleSided": true,
      "name": "lambert5",
      "pbrMetallicRoughness": {
        "baseColorFactor": [
          0.0,
          0.0,
          0.0,
          1.0
        ],
        "metallicFactor": 0.0,
        "roughnessFactor": 0.6
      }
    }
  ],
  "meshes": [
    {
      "name": "Hair2_lambert6_0",
      "primitives": [
        {
          "attributes": {
            "NORMAL": 1,
            "POSITION": 0,
            "TEXCOORD_0": 2
          },
          "indices": 3,
          "material": 0,
          "mode": 4
        }
      ]
    },
    {
      "name": "Hair1_lambert6_0",
      "primitives": [
        {
          "attributes": {
            "NORMAL": 5,
            "POSITION": 4,
            "TEXCOORD_0": 6
          },
          "indices": 7,
          "material": 0,
          "mode": 4
        }
      ]
    },
    {
      "name": "Body_lambert2_0",
      "primitives": [
        {
          "attributes": {
            "NORMAL": 9,
            "POSITION": 8,
            "TEXCOORD_0": 10
          },
          "indices": 11,
          "material": 1,
          "mode": 4
        }
      ]
    },
    {
      "name": "R_Eye1_lambert4_0",
      "primitives": [
        {
          "attributes": {
            "NORMAL": 13,
            "POSITION": 12,
            "TEXCOORD_0": 14
          },
          "indices": 15,
          "material": 2,
          "mode": 4
        }
      ]
    },
    {
      "name": "R_Eye2_lambert3_0",
      "primitives": [
        {
          "attributes": {
            "NORMAL": 17,
            "POSITION": 16,
            "TEXCOORD_0": 18
          },
          "indices": 19,
          "material": 3,
          "mode": 4
        }
      ]
    },
    {
      "name": "L_Eye1_lambert4_0",
      "primitives": [
        {
          "attributes": {
            "NORMAL": 21,
            "POSITION": 20,
            "TEXCOORD_0": 22
          },
          "indices": 23,
          "material": 2,
          "mode": 4
        }
      ]
    },
    {
      "name": "L_Eye2_lambert3_0",
      "primitives": [
        {
          "attributes": {
            "NORMAL": 25,
            "POSITION": 24,
            "TEXCOORD_0": 26
          },
          "indices": 27,
          "material": 3,
          "mode": 4
        }
      ]
    },
    {
      "name": "polySurface2_lambert5_0",
      "primitives": [
        {
          "attributes": {
            "NORMAL": 29,
            "POSITION": 28,
            "TEXCOORD_0": 30
          },
          "indices": 31,
          "material": 4,
          "mode": 4
        }
      ]
    },
    {
      "name": "polySurface1_lambert5_0",
      "primitives": [
        {
          "attributes": {
            "NORMAL": 33,
            "POSITION": 32,
            "TEXCOORD_0": 34
          },
          "indices": 35,
          "material": 4,
          "mode": 4
        }
      ]
    }
  ],
  "nodes": [
    {
      "children": [
        1
      ],
      "matrix": [
        1.0,
        0.0,
        0.0,
        0.0,
        0.0,
        2.220446049250313e-16,
        -1.0,
        0.0,
        0.0,
        1.0,
        2.220446049250313e-16,
        0.0,
        0.0,
        0.0,
        0.0,
        1.0
      ],
      "name": "Sketchfab_model"
    },
    {
      "children": [
        2
      ],
      "matrix": [
        1.0,
        0.0,
        0.0,
        0.0,
        0.0,
        0.0,
        1.0,
        0.0,
        0.0,
        -1.0,
        0.0,
        0.0,
        0.0,
        0.0,
        0.0,
        1.0
      ],
      "name": "d16d3c8ff7ae49d1aa934100c4ffc5f1.fbx"
    },
    {
      "children": [
        3
      ],
      "name": "RootNode"
    },
    {
      "children": [
        4,
        6,
        8,
        10,
        12,
        14,
        16,
        18,
        20
      ],
      "name": "Model"
    },
    {
      "children": [
        5
      ],
      "name": "Hair2"
    },
    {
      "mesh": 0,
      "name": "Hair2_lambert6_0"
    },
    {
      "children": [
        7
      ],
      "name": "Hair1"
    },
    {
      "mesh": 1,
      "name": "Hair1_lambert6_0"
    },
    {
      "children": [
        9
      ],
      "name": "Body"
    },
    {
      "mesh": 2,
      "name": "Body_lambert2_0"
    },
    {
      "children": [
        11
      ],
      "name": "R_Eye1"
    },
    {
      "mesh": 3,
      "name": "R_Eye1_lambert4_0"
    },
    {
      "children": [
        13
      ],
      "name": "R_Eye2"
    },
    {
      "mesh": 4,
      "name": "R_Eye2_lambert3_0"
    },
    {
      "children": [
        15
      ],
      "name": "L_Eye1"
    },
    {
      "mesh": 5,
      "name": "L_Eye1_lambert4_0"
    },
    {
      "children": [
        17
      ],
      "name": "L_Eye2"
    },
    {
      "mesh": 6,
      "name": "L_Eye2_lambert3_0"
    },
    {
      "children": [
        19
      ],
      "name": "polySurface2"
    },
    {
      "mesh": 7,
      "name": "polySurface2_lambert5_0"
    },
    {
      "children": [
        21
      ],
      "name": "polySurface1"
    },
    {
      "mesh": 8,
      "name": "polySurface1_lambert5_0"
    }
  ],
  "samplers": [
    {
      "magFilter": 9729,
      "minFilter": 9987,
      "wrapS": 10497,
      "wrapT": 10497
    }
  ],
  "scene": 0,
  "scenes": [
    {
      "name": "Sketchfab_Scene",
      "nodes": [
        0
      ]
    }
  ],
  "textures": [
    {
      "sampler": 0,
      "source": 0
    },
    {
      "sampler": 0,
      "source": 1
    }
  ]
}
