{
  "accessors": [
    {
      "bufferView": 3,
      "componentType": 5126,
      "count": 845,
      "max": [
        0.1667868047952652,
        0.5328640341758728,
        0.32876378297805786
      ],
      "min": [
        -0.166786789894104,
        0.10711543262004852,
        -0.3744335174560547
      ],
      "type": "VEC3"
    },
    {
      "bufferView": 3,
      "byteOffset": 10140,
      "componentType": 5126,
      "count": 845,
      "max": [
        0.9999909400939941,
        0.9999998211860657,
        0.9999296069145203
      ],
      "min": [
        -0.9999909400939941,
        -0.9999122023582458,
        -0.6298359632492065
      ],
      "type": "VEC3"
    },
    {
      "bufferView": 2,
      "componentType": 5126,
      "count": 845,
      "max": [
        0.9877908825874329,
        1.8312770128250122
      ],
      "min": [
        0.014443130232393742,
        1.0108925104141235
      ],
      "type": "VEC2"
    },
    {
      "bufferView": 1,
      "componentType": 5125,
      "count": 4452,
      "type": "SCALAR"
    },
    {
      "bufferView": 3,
      "byteOffset": 20280,
      "componentType": 5126,
      "count": 213,
      "max": [
        0.3768359422683716,
        0.6279025673866272,
        0.1302201896905899
      ],
      "min": [
        -0.26379385590553284,
        0.045961033552885056,
        -0.6436857581138611
      ],
      "type": "VEC3"
    },
    {
      "bufferView": 3,
      "byteOffset": 22836,
      "componentType": 5126,
      "count": 213,
      "max": [
        0.999268651008606,
        0.9998536109924316,
        0.9995083212852478
      ],
      "min": [
        -0.9990620613098145,
        -0.9986072778701782,
        -0.9991398453712463
      ],
      "type": "VEC3"
    },
    {
      "bufferView": 2,
      "byteOffset": 6760,
      "componentType": 5126,
      "count": 213,
      "max": [
        0.9905803799629211,
        1.9861695766448975
      ],
      "min": [
        0.01083866972476244,
        1.0132886171340942
      ],
      "type": "VEC2"
    },
    {
      "bufferView": 1,
      "byteOffset": 17808,
      "componentType": 5125,
      "count": 834,
      "type": "SCALAR"
    },
    {
      "bufferView": 5,
      "componentType": 5126,
      "count": 42,
      "max": [
        1.0,
        0.4878215193748474,
        1.0,
        0.0,
        0.8097076416015625,
        1.0,
        0.13890741765499115,
        0.0,
        0.9999918937683105,
        0.7512025833129883,
        1.0,
        0.0,
        0.4249979257583618,
        0.38080933690071106,
        0.12558570504188538,
        1.0
      ],
      "min": [
        -0.9992976188659668,
        -0.5282390713691711,
        -1.0,
        0.0,
        -0.809707760810852,
        -0.991777777671814,
        -0.1389075368642807,
        0.0,
        -1.0,
        -0.7512024641036987,
        -1.0,
        0.0,
        -0.5720680952072144,
        -0.3808092176914215,
        -0.12558560073375702,
        1.0
      ],
      "type": "MAT4"
    },
    {
      "bufferView": 0,
      "componentType": 5123,
      "count": 845,
      "type": "VEC4"
    },
    {
      "bufferView": 4,
      "componentType": 5126,
      "count": 845,
      "max": [
        1.0,
        0.5,
        0.30000001192092896,
        0.20819209516048431
      ],
      "min": [
        0.30000001192092896,
        0.0,
        0.0,
        0.0
      ],
      "type": "VEC4"
    },
    {
      "bufferView": 0,
      "byteOffset": 6760,
      "componentType": 5123,
      "count": 213,
      "type": "VEC4"
    },
    {
      "bufferView": 4,
      "byteOffset": 13520,
      "componentType": 5126,
      "count": 213,
      "max": [
        1.0,
        0.5,
        0.25,
        0.0
      ],
      "min": [
        0.375,
        0.0,
        0.0,
        0.0
      ],
      "type": "VEC4"
    }
  ],
  "asset": {
    "extras": {
      "author": "Here's Annoying Orange (https://sketchfab.com/heresannoyingorange)",
      "license": "CC-BY-4.0 (http://creativecommons.org/licenses/by/4.0/)",
      "source": "https://sketchfab.com/3d-models/dorys-reef-hd-nemo-f4f5eb4ea86044fcae7b383d2f1788e9",
      "title": "Dory's Reef HD - Nemo"
    },
    "generator": "Sketchfab-12.66.0",
    "version": "2.0"
  },
  "bufferViews": [
    {
      "buffer": 0,
      "byteLength": 8464,
      "byteStride": 8,
      "name": "shortBufferViews",
      "target": 34962
    },
    {
      "buffer": 0,
      "byteLength": 21144,
      "byteOffset": 8464,
      "name": "floatBufferViews",
      "target": 34963
    },
    {
      "buffer": 0,
      "byteLength": 8464,
      "byteOffset": 29608,
      "byteStride": 8,
      "name": "floatBufferViews",
      "target": 34962
    },
    {
      "buffer": 0,
      "byteLength": 25392,
      "byteOffset": 38072,
      "byteStride": 12,
      "name": "floatBufferViews",
      "target": 34962
    },
    {
      "buffer": 0,
      "byteLength": 16928,
      "byteOffset": 63464,
      "byteStride": 16,
      "name": "floatBufferViews",
      "target": 34962
    },
    {
      "buffer": 0,
      "byteLength": 2688,
      "byteOffset": 80392,
      "name": "floatBufferViews"
    }
  ],
  "buffers": [
    {
      "byteLength": 83080,
      "uri": "scene.bin"
    }
  ],
  "images": [
    {
      "uri": "textures/MAT_Nemo_baseColor.png"
    }
  ],
  "materials": [
    {
      "doubleSided": true,
      "name": "MAT_Nemo",
      "pbrMetallicRoughness": {
        "baseColorTexture": {
          "index": 0
        },
        "metallicFactor": 0.0,
        "roughnessFactor": 0.9577051494623774
      }
    },
    {
      "doubleSided": true,
      "name": "MAT_Nemo_fins",
      "pbrMetallicRoughness": {
        "baseColorTexture": {
          "index": 0
        },
        "metallicFactor": 0.0,
        "roughnessFactor": 0.9577051494623774
      }
    }
  ],
  "meshes": [
    {
      "name": "0000_MSH_Nemo_MAT_Nemo_0",
      "primitives": [
        {
          "attributes": {
            "JOINTS_0": 9,
            "NORMAL": 1,
            "POSITION": 0,
            "TEXCOORD_0": 2,
            "WEIGHTS_0": 10
          },
          "indices": 3,
          "material": 0,
          "mode": 4
        }
      ]
    },
    {
      "name": "0001_MSH_Nemo_MAT_Nemo_fins_0",
      "primitives": [
        {
          "attributes": {
            "JOINTS_0": 11,
            "NORMAL": 5,
            "POSITION": 4,
            "TEXCOORD_0": 6,
            "WEIGHTS_0": 12
          },
          "indices": 7,
          "material": 1,
          "mode": 4
        }
      ]
    }
  ],
  "nodes": [
    {
      "children": [
        1
      ],
      "matrix": [
        1.0,
        0.0,
        0.0,
        0.0,
        0.0,
        2.220446049250313e-16,
        -1.0,
        0.0,
        0.0,
        1.0,
        2.220446049250313e-16,
        0.0,
        0.0,
        0.0,
        0.0,
        1.0
      ],
      "name": "Sketchfab_model"
    },
    {
      "children": [
        2
      ],
      "matrix": [
        1.0,
        0.0,
        0.0,
        0.0,
        0.0,
        0.0,
        1.0,
        0.0,
        0.0,
        -1.0,
        0.0,
        0.0,
        0.0,
        0.0,
        0.0,
        1.0
      ],
      "name": "Nemo_Action_HD.fbx"
    },
    {
      "children": [
        3
      ],
      "name": "RootNode"
    },
    {
      "children": [
        4,
        6,
        8,
        5,
        7
      ],
      "name": "Object_3"
    },
    {
      "children": [
        9
      ],
      "name": "_rootJoint"
    },
    {
      "matrix": [
        1.0,
        -1.2924697071141057e-26,
        0.0,
        0.0,
        1.2924697071141057e-26,
        1.0,
        -1.3668770926049545e-18,
        0.0,
        1.766647235540106e-44,
        1.3668770926049545e-18,
        1.0,
        0.0,
        -1.0339757656912846e-25,
        0.0,
        0.0,
        1.0
      ],
      "name": "Object_5"
    },
    {
      "mesh": 0,
      "name": "Object_6",
      "skin": 0
    },
    {
      "matrix": [
        1.0,
        -1.2924697071141057e-26,
        0.0,
        0.0,
        1.2924697071141057e-26,
        1.0,
        -1.3668770926049545e-18,
        0.0,
        1.766647235540106e-44,
        1.3668770926049545e-18,
        1.0,
        0.0,
        -1.0339757656912846e-25,
        0.0,
        0.0,
        1.0
      ],
      "name": "Object_7"
    },
    {
      "mesh": 1,
      "name": "Object_8",
      "skin": 0
    },
    {
      "children": [
        10
      ],
      "name": "Nemo_Action_HD_020"
    },
    {
      "children": [
        11
      ],
      "name": "Nemo_root_00"
    },
    {
      "children": [
        12,
        20,
        24,
        47
      ],
      "name": "Nemo_hip_03",
      "rotation": [
        -0.0014227089704945683,
        -0.7071053385734558,
        0.0014227089704945683,
        0.7071053385734558
      ],
      "translation": [
        0.0,
        0.32704979181289673,
        0.023947710171341896
      ]
    },
    {
      "children": [
        13
      ],
      "name": "Nemo_spine_01_010",
      "rotation": [
        -0.04567332938313484,
        0.9989564418792725,
        6.917954323008816e-17,
        1.7242030620741127e-16
      ],
      "translation": [
        -0.11678049713373184,
        -0.00446884473785758,
        -1.3573399900773724e-16
      ]
    },
    {
      "children": [
        14
      ],
      "name": "Nemo_spine_02_027",
      "rotation": [
        -7.368724247149996e-18,
        -4.0817122770799724e-16,
        -0.01111621968448162,
        0.9999383091926575
      ],
      "translation": [
        0.13375629484653473,
        9.305619386168473e-09,
        -1.1111261735051664e-15
      ]
    },
    {
      "children": [
        15
      ],
      "name": "Nemo_tail_01_09",
      "rotation": [
        -8.202078108614507e-17,
        1.752463416386746e-15,
        0.0026045136619359255,
        0.9999966025352478
      ],
      "translation": [
        0.0705656185746193,
        -3.622974587003114e-09,
        8.178939550775683e-16
      ]
    },
    {
      "children": [
        16
      ],
      "name": "Nemo_tail_02_022",
      "rotation": [
        -5.847067773151945e-17,
        1.1247224287371372e-15,
        0.04813114181160927,
        0.9988410472869873
      ],
      "scale": [
        0.9999999403953552,
        0.9999999403953552,
        1.0
      ],
      "translation": [
        0.07949881255626678,
        4.403759579219013e-09,
        3.685211919305498e-16
      ]
    },
    {
      "children": [
        17,
        18,
        19
      ],
      "name": "Nemo_tail_03_021",
      "rotation": [
        -5.642206899158082e-17,
        9.82250216459543e-16,
        -0.018458908423781395,
        0.9998297095298767
      ],
      "scale": [
        0.9999999403953552,
        0.9999999403953552,
        1.0
      ],
      "translation": [
        0.07900718599557877,
        2.1700374830402325e-09,
        -1.1881316328059494e-15
      ]
    },
    {
      "name": "Nemo_tail_04_029",
      "rotation": [
        1.0002706372715864e-18,
        3.00234203051186e-17,
        0.026520660147070885,
        0.9996482729911804
      ],
      "scale": [
        0.9999999403953552,
        0.9999999403953552,
        1.0
      ],
      "translation": [
        0.07209055125713348,
        -9.111729148969516e-09,
        1.8843808569877227e-15
      ]
    },
    {
      "name": "Nemo_tail_05_030",
      "rotation": [
        1.3781042086859235e-16,
        4.977203714548895e-16,
        0.09421848505735397,
        0.9955516457557678
      ],
      "translation": [
        0.07001081109046936,
        0.07512836158275604,
        -2.4117944647169793e-17
      ]
    },
    {
      "name": "Nemo_tail_06_031",
      "rotation": [
        -7.81277382512255e-17,
        3.964871758242326e-16,
        -0.12332409620285034,
        0.9923664331436157
      ],
      "translation": [
        0.07618493586778641,
        -0.0705626979470253,
        1.5719797270983882e-16
      ]
    },
    {
      "children": [
        21
      ],
      "name": "Nemo_fin_Lf_01_011",
      "rotation": [
        0.011520936153829098,
        0.707012951374054,
        0.00867580808699131,
        0.7070536017417908
      ],
      "scale": [
        0.9999999403953552,
        0.9999999403953552,
        1.0
      ],
      "translation": [
        0.001236805459484458,
        -0.07160380482673645,
        -0.14446839690208435
      ]
    },
    {
      "children": [
        22,
        23
      ],
      "name": "Nemo_fin_Lf_02_01",
      "rotation": [
        -4.919855216506145e-19,
        -5.62314799610037e-17,
        -0.005661963019520044,
        0.9999839663505554
      ],
      "translation": [
        0.07645473629236221,
        -0.00029754548450000584,
        -3.231740430820196e-10
      ]
    },
    {
      "name": "Nemo_fin_Lf_04_012",
      "rotation": [
        4.436081282232467e-17,
        -2.3008212785848758e-18,
        -0.26038023829460144,
        0.9655061364173889
      ],
      "translation": [
        0.05328907445073128,
        -0.05523039773106575,
        0.0036909598857164383
      ]
    },
    {
      "name": "Nemo_fin_Lf_03_019",
      "rotation": [
        -6.021034443883688e-17,
        -2.1099912323926782e-16,
        0.2663872539997101,
        0.963866114616394
      ],
      "translation": [
        0.06843939423561096,
        0.052164431661367416,
        0.003690960118547082
      ]
    },
    {
      "children": [
        25
      ],
      "name": "Nemo_neck_016",
      "rotation": [
        -4.0339795220475794e-17,
        1.9603690297188532e-15,
        -0.06320042908191681,
        0.9980008602142334
      ],
      "scale": [
        0.9999999403953552,
        0.9999999403953552,
        1.0
      ],
      "translation": [
        0.07261166721582413,
        -0.0016897685127332807,
        -9.129256254546825e-17
      ]
    },
    {
      "children": [
        26,
        27,
        28,
        29,
        30,
        31,
        35,
        36,
        37,
        38,
        39,
        42,
        43,
        44,
        45,
        46
      ],
      "name": "Nemo_head_023",
      "rotation": [
        -6.754402187061361e-17,
        1.2274557726569407e-15,
        0.04480351507663727,
        0.998995840549469
      ],
      "translation": [
        0.045339491218328476,
        -1.1887617112904536e-08,
        4.503467716270222e-16
      ]
    },
    {
      "name": "Nemo_eyelid_down_Rt_04",
      "rotation": [
        -0.19706010818481445,
        -0.08091884106397629,
        0.951652467250824,
        0.2213076502084732
      ],
      "translation": [
        0.048053842037916183,
        0.010460419580340385,
        0.05498792976140976
      ]
    },
    {
      "name": "Nemo_eyelid_up_Lf_05",
      "rotation": [
        0.06980376690626144,
        0.20126593112945557,
        0.4641186594963074,
        0.859775185585022
      ],
      "translation": [
        0.048053666949272156,
        0.010460413992404938,
        -0.05498789995908737
      ]
    },
    {
      "name": "Nemo_eye_Lf_07",
      "rotation": [
        -0.005238817073404789,
        0.06487824022769928,
        0.08031579852104187,
        0.9946420192718506
      ],
      "scale": [
        1.0000001192092896,
        1.0000001192092896,
        1.0
      ],
      "translation": [
        0.048053666949272156,
        0.010460413992404938,
        -0.05498789995908737
      ]
    },
    {
      "name": "Nemo_eyelid_down_Lf_08",
      "rotation": [
        -0.08091888576745987,
        0.19706010818481445,
        -0.22130753099918365,
        0.9516525864601135
      ],
      "translation": [
        0.048053666949272156,
        0.010460413992404938,
        -0.05498789995908737
      ]
    },
    {
      "name": "Nemo_eyelid_up_Rt_014",
      "rotation": [
        -0.20126596093177795,
        0.06980373710393906,
        0.8597751259803772,
        -0.46411874890327454
      ],
      "translation": [
        0.048053842037916183,
        0.010460419580340385,
        0.05498792976140976
      ]
    },
    {
      "children": [
        32,
        33,
        34
      ],
      "name": "Nemo_jaw_025",
      "rotation": [
        -8.446845484080378e-17,
        7.237305728807287e-16,
        -0.09871267527341843,
        0.9951159954071045
      ],
      "translation": [
        0.05740738287568092,
        -0.08488781750202179,
        -1.191027426694375e-15
      ]
    },
    {
      "name": "Nemo_lip_down_mid_Lf_013",
      "rotation": [
        -0.0014382810331881046,
        0.2206668108701706,
        0.09879123419523239,
        0.9703320860862732
      ],
      "translation": [
        0.1006012037396431,
        0.0016163779655471444,
        -0.03511306270956993
      ]
    },
    {
      "name": "Nemo_lip_down_mid_Rt_018",
      "rotation": [
        0.0014382762601599097,
        -0.2206668257713318,
        0.09879124164581299,
        0.9703322052955627
      ],
      "translation": [
        0.10060150921344757,
        0.0016165103297680616,
        0.03511305898427963
      ]
    },
    {
      "name": "Nemo_lip_down_040",
      "rotation": [
        -7.368855107122902e-17,
        8.103265627267984e-16,
        0.12346101552248001,
        0.9923494458198547
      ],
      "translation": [
        0.11391490697860718,
        0.0018740211380645633,
        5.412597707678919e-16
      ]
    },
    {
      "name": "Nemo_eyebrow_02_Rt_026",
      "rotation": [
        -0.1755177080631256,
        0.11580761522054672,
        0.9418467283248901,
        -0.2621203362941742
      ],
      "translation": [
        0.0868181511759758,
        0.12160362303256989,
        0.04481901973485947
      ]
    },
    {
      "name": "Nemo_eye_Rt_015",
      "rotation": [
        -0.06487823277711868,
        -0.005238840822130442,
        0.9946419596672058,
        -0.08031616359949112
      ],
      "translation": [
        0.048053842037916183,
        0.010460419580340385,
        0.05498792976140976
      ]
    },
    {
      "name": "Nemo_lip_up_mid_Lf_032",
      "rotation": [
        -0.07217752188444138,
        0.22996552288532257,
        -0.15283696353435516,
        0.9584086537361145
      ],
      "translation": [
        0.16778990626335144,
        -0.07653231918811798,
        -0.03347764164209366
      ]
    },
    {
      "name": "Nemo_lip_up_033",
      "rotation": [
        2.0807597614234628e-17,
        9.829005260047975e-16,
        -0.16300679743289948,
        0.9866249561309814
      ],
      "translation": [
        0.1780639886856079,
        -0.07653269916772842,
        -4.749775897606708e-16
      ]
    },
    {
      "children": [
        40,
        41
      ],
      "name": "Nemo_lip_offset_034",
      "rotation": [
        2.766503904322376e-17,
        8.125869230861057e-16,
        -0.018540821969509125,
        0.9998282194137573
      ],
      "translation": [
        0.09353096038103104,
        -0.08665160089731216,
        -4.854888980591822e-16
      ]
    },
    {
      "name": "Nemo_lip_corn_Rt_06",
      "rotation": [
        0.019405782222747803,
        -0.09642840921878815,
        -0.004265346564352512,
        0.9951416850090027
      ],
      "translation": [
        0.04481523111462593,
        0.0008114809170365334,
        0.06411051005125046
      ]
    },
    {
      "name": "Nemo_lip_corn_Lf_028",
      "rotation": [
        -0.019405780360102654,
        0.09642840921878815,
        -0.004265348426997662,
        0.9951416850090027
      ],
      "translation": [
        0.04481469839811325,
        0.0008114734664559364,
        -0.06411045044660568
      ]
    },
    {
      "name": "Nemo_eyebrow_01_Lf_035",
      "rotation": [
        -0.010264180600643158,
        0.1391628384590149,
        0.28310269117355347,
        0.9488841891288757
      ],
      "translation": [
        0.0710492730140686,
        0.12224455177783966,
        -0.09034306555986404
      ]
    },
    {
      "name": "Nemo_eyebrow_01_Rt_036",
      "rotation": [
        -0.1391628384590149,
        -0.010264207608997822,
        0.9488842487335205,
        -0.2831028699874878
      ],
      "translation": [
        0.07104939967393875,
        0.12224452197551727,
        0.09034307301044464
      ]
    },
    {
      "name": "Nemo_eyebrow_02_Lf_037",
      "rotation": [
        0.1158076599240303,
        0.17551769316196442,
        0.26212015748023987,
        0.9418467879295349
      ],
      "translation": [
        0.08681752532720566,
        0.12160363048315048,
        -0.04481900855898857
      ]
    },
    {
      "name": "Nemo_teeth_038",
      "rotation": [
        1.1143647344958218e-17,
        -3.476744670189802e-16,
        0.019098997116088867,
        0.9998176097869873
      ],
      "translation": [
        0.13380660116672516,
        -0.07600656896829605,
        3.730884465217042e-16
      ]
    },
    {
      "name": "Nemo_lip_up_mid_Rt_039",
      "rotation": [
        0.07217752933502197,
        -0.22996552288532257,
        -0.15283696353435516,
        0.9584086537361145
      ],
      "scale": [
        1.0,
        1.0,
        1.0000001192092896
      ],
      "translation": [
        0.16779009997844696,
        -0.0765322670340538,
        0.03347761929035187
      ]
    },
    {
      "children": [
        48
      ],
      "name": "Nemo_fin_Rt_01_024",
      "rotation": [
        0.011828748509287834,
        -0.7070078253746033,
        -0.014673667028546333,
        0.7069545388221741
      ],
      "translation": [
        0.004199768416583538,
        -0.07372848689556122,
        0.15511560440063477
      ]
    },
    {
      "children": [
        49
      ],
      "name": "Nemo_fin_Rt_02_017",
      "rotation": [
        1.791516638043514e-16,
        -7.13546113420739e-16,
        -0.056183453649282455,
        0.9984204769134521
      ],
      "scale": [
        0.9999999403953552,
        0.9999999403953552,
        1.0
      ],
      "translation": [
        0.020489750429987907,
        6.341536185061614e-09,
        1.9469457157583747e-09
      ]
    },
    {
      "name": "Nemo_fin_Rt_03_02",
      "rotation": [
        1.1479153290334829e-16,
        -2.4169229646624733e-15,
        0.01728368178009987,
        0.9998506307601929
      ],
      "translation": [
        0.049698203802108765,
        1.9873072076848075e-08,
        -4.418570509479025e-10
      ]
    }
  ],
  "samplers": [
    {
      "magFilter": 9729,
      "minFilter": 9987,
      "wrapS": 10497,
      "wrapT": 10497
    }
  ],
  "scene": 0,
  "scenes": [
    {
      "name": "Sketchfab_Scene",
      "nodes": [
        0
      ]
    }
  ],
  "skins": [
    {
      "inverseBindMatrices": 8,
      "joints": [
        4,
        9,
        10,
        11,
        12,
        13,
        14,
        15,
        16,
        17,
        18,
        19,
        20,
        21,
        22,
        23,
        24,
        25,
        26,
        27,
        28,
        29,
        30,
        31,
        32,
        33,
        34,
        35,
        36,
        37,
        38,
        39,
        40,
        41,
        42,
        43,
        44,
        45,
        46,
        47,
        48,
        49
      ],
      "skeleton": 4
    }
  ],
  "textures": [
    {
      "sampler": 0,
      "source": 0
    }
  ]
}
